<?xml version="1.0" encoding="UTF-8" standalone="no"?>
<!DOCTYPE svg PUBLIC "-//W3C//DTD SVG 1.1//EN" "http://www.w3.org/Graphics/SVG/1.1/DTD/svg11.dtd">
<svg width="100%" height="100%" viewBox="0 0 512 512" version="1.1" xmlns="http://www.w3.org/2000/svg" xmlns:xlink="http://www.w3.org/1999/xlink" xml:space="preserve" xmlns:serif="http://www.serif.com/" style="fill-rule:evenodd;clip-rule:evenodd;stroke-linejoin:round;stroke-miterlimit:2;">
    <g transform="matrix(2.66667,0,0,2.66667,0,0.273896)">
        <path d="M192,30C192,13.431 178.569,0 162,0L30,0C13.431,0 0,13.431 0,30L0,162C0,178.569 13.431,192 30,192L162,192C178.569,192 192,178.569 192,162L192,30Z" style="fill:rgb(28,31,35);"/>
    </g>
    <g transform="matrix(0.860886,0,0,0.860886,35.6132,35.8797)">
        <path d="M240,200C235.611,200 232,196.389 232,192L232,168C232,163.611 235.611,160 240,160C244.389,160 248,163.611 248,168L248,192C248,196.389 244.389,200 240,200Z" style="fill:rgb(122,185,45);fill-rule:nonzero;"/>
        <path d="M288,361.6L288,344L224,344L224,361.6C223.99,370.593 219.482,379.01 212,384C204.518,388.99 200.01,397.407 200,406.4L200,472C200,480.777 207.223,488 216,488L296,488C304.777,488 312,480.777 312,472L312,406.4C311.99,397.407 307.482,388.99 300,384C292.518,379.01 288.01,370.593 288,361.6Z" style="fill:rgb(0,162,224);fill-rule:nonzero;"/>
        <rect x="208" y="312" width="96" height="32" style="fill:rgb(196,242,54);fill-rule:nonzero;"/>
        <g>
            <path d="M352.952,221.384L322.88,210.44L328.48,194.984C344.586,150.772 350.174,103.41 344.8,56.664L435.016,89.464C400.844,121.811 374.673,161.679 358.584,205.896L352.952,221.384Z" style="fill:rgb(161,213,28);fill-rule:nonzero;"/>
            <path d="M344.8,56.656C346.559,72.276 347.094,88.009 346.4,103.712C348.408,110.224 354.506,114.667 361.32,114.584C363.621,121.448 368.925,126.905 375.72,129.4C365.658,146.057 357.225,163.645 350.536,181.92C347.459,190.334 338.045,194.765 329.6,191.776C329.224,192.84 328.92,193.92 328.536,194.976L322.936,210.432L353.008,221.376L358.608,205.92C374.697,161.703 400.868,121.835 435.04,89.488L344.8,56.656Z" style="fill:rgb(122,185,45);fill-rule:nonzero;"/>
            <path d="M450.4,92.936C458.232,91.827 464.115,85.052 464.115,77.142C464.115,68.391 456.914,61.19 448.163,61.19C446.953,61.19 445.747,61.327 444.568,61.6C444.907,59.727 445.077,57.828 445.077,55.924C445.077,38.427 430.679,24.028 413.181,24.028C404.613,24.028 396.397,27.481 390.4,33.6C385.887,28.61 379.465,25.759 372.737,25.759C362.683,25.759 353.663,32.126 350.296,41.6C347.629,40.613 344.807,40.107 341.963,40.107C328.797,40.107 317.963,50.941 317.963,64.107C317.963,77.273 328.797,88.107 341.963,88.107C346.068,88.107 350.106,87.054 353.688,85.048C354.775,92.814 361.527,98.632 369.368,98.56C372.618,108.258 381.76,114.835 391.988,114.835C397.126,114.835 402.129,113.175 406.248,110.104C408.702,120.99 418.454,128.789 429.614,128.789C442.753,128.789 453.566,117.976 453.566,104.837C453.566,100.662 452.474,96.559 450.4,92.936Z" style="fill:rgb(196,242,54);fill-rule:nonzero;"/>
            <path d="M437.328,111.08C429.767,108.333 424.08,101.953 422.216,94.128C418.097,97.199 413.094,98.859 407.956,98.859C397.728,98.859 388.586,92.282 385.336,82.584C377.495,82.656 370.743,76.838 369.656,69.072C366.089,71.078 362.065,72.133 357.972,72.133C344.898,72.133 334.14,61.375 334.14,48.301C334.14,45.918 334.497,43.549 335.2,41.272C325.06,44.265 318.051,53.641 318.051,64.214C318.051,77.336 328.849,88.134 341.971,88.134C346.072,88.134 350.104,87.079 353.68,85.072C354.767,92.838 361.519,98.656 369.36,98.584C372.61,108.282 381.752,114.859 391.98,114.859C397.118,114.859 402.121,113.199 406.24,110.128C408.832,120.868 418.522,128.498 429.57,128.498C439.625,128.498 448.661,122.18 452.112,112.736C452.264,112.312 452.296,111.872 452.424,111.44C447.488,112.964 442.186,112.838 437.328,111.08Z" style="fill:rgb(161,213,28);fill-rule:nonzero;"/>
        </g>
        <g>
            <path d="M176.504,107.432L144.504,52C134.51,34.705 115.991,24.017 96.016,24.017C65.296,24.017 40.016,49.296 40.016,80.017C40.016,110.738 65.296,136.017 96.016,136.017C98.319,136.017 100.619,135.875 102.904,135.592C106.726,154.059 123.138,167.421 141.995,167.421C163.895,167.421 181.915,149.401 181.915,127.501C181.915,120.451 180.048,113.526 176.504,107.432Z" style="fill:rgb(248,156,141);fill-rule:nonzero;"/>
            <circle cx="96" cy="80" r="16" style="fill:rgb(170,225,249);"/>
            <path d="M169.856,138.072C163.75,141.699 156.778,143.614 149.676,143.614C130.815,143.614 114.455,130.11 110.88,111.592C108.589,111.877 106.283,112.02 103.975,112.02C73.29,112.02 48.039,86.769 48.039,56.084C48.039,54.269 48.128,52.455 48.304,50.648C42.865,59.478 39.984,69.648 39.984,80.018C39.984,110.739 65.263,136.018 95.984,136.018C98.289,136.018 100.592,135.876 102.88,135.592C106.641,154.066 123.035,167.459 141.888,167.459C163.726,167.459 181.696,149.489 181.696,127.651C181.696,127.648 181.696,127.644 181.696,127.64C178.485,131.872 174.459,135.42 169.856,138.072Z" style="fill:rgb(248,102,79);fill-rule:nonzero;"/>
        </g>
        <g>
            <g transform="matrix(0.5,0.866,-0.866,0.5,181.568,-168.912)">
                <path d="M285.064,68.671C285.064,53.284 272.572,40.792 257.185,40.792L216.943,40.792C201.556,40.792 189.064,53.284 189.064,68.671L189.064,76.913C189.064,92.3 201.556,104.792 216.943,104.792L257.185,104.792C272.572,104.792 285.064,92.3 285.064,76.913L285.064,68.671Z" style="fill:rgb(249,225,9);"/>
            </g>
            <path d="M276,86.4C269.918,89.913 263.017,91.762 255.994,91.762C241.721,91.762 228.488,84.122 221.352,71.76L205.352,44.04C204.223,42.023 203.398,39.85 202.904,37.592C193.92,44.985 191.56,57.909 197.352,68L221.352,109.6C225.631,117.027 233.576,121.618 242.147,121.618C246.362,121.618 250.503,120.508 254.152,118.4L268.016,110.4C277.159,105.069 281.73,94.277 279.2,84C278.203,84.888 277.132,85.691 276,86.4Z" style="fill:rgb(252,188,4);fill-rule:nonzero;"/>
        </g>
        <g>
            <circle cx="240" cy="232" r="40" style="fill:rgb(249,225,9);"/>
            <path d="M264,160L288,160C288,177.555 273.555,192 256,192L240,192L240,184C240,170.834 250.834,160 264,160Z" style="fill:rgb(196,242,54);fill-rule:nonzero;"/>
            <path d="M256,256C234.057,256 216,237.943 216,216C216.044,209.348 217.764,202.812 221,197C208.092,203.941 200.011,217.461 200.011,232.117C200.011,253.99 218.01,271.989 239.883,271.989C254.539,271.989 268.059,263.908 275,251C269.188,254.236 262.652,255.956 256,256Z" style="fill:rgb(252,188,4);fill-rule:nonzero;"/>
            <path d="M256,176L241.472,176C240.524,178.562 240.026,181.268 240,184L240,192L256,192C273.555,192 288,177.555 288,160L283.56,160C277.9,169.863 267.372,175.975 256,176Z" style="fill:rgb(161,213,28);fill-rule:nonzero;"/>
        </g>
        <path d="M256,464C251.614,463.996 248.007,460.386 248.007,456C248.007,454.42 248.475,452.874 249.352,451.56L257.056,440L239.999,440C235.61,440 231.999,436.389 231.999,432C231.999,430.42 232.467,428.874 233.344,427.56L249.344,403.56C250.827,401.337 253.328,399.999 256,399.999C260.389,399.999 264.001,403.611 264.001,408C264.001,409.58 263.533,411.125 262.656,412.44L254.944,424L272.001,424C276.39,424 280.001,427.611 280.001,432C280.001,433.58 279.533,435.126 278.656,436.44L262.656,460.44C261.173,462.662 258.672,464 256,464Z" style="fill:rgb(237,238,211);fill-rule:nonzero;"/>
        <path d="M281.6,464C250.002,464 224,437.998 224,406.4C224.01,397.407 228.518,388.99 236,384C243.482,379.01 247.99,370.593 248,361.6L248,360L288,360L288,344L224,344L224,361.6C223.99,370.593 219.482,379.01 212,384C204.518,388.99 200.01,397.407 200,406.4L200,472C200,480.777 207.223,488 216,488L296,488C304.777,488 312,480.777 312,472L312,464L281.6,464Z" style="fill-opacity:0.1;fill-rule:nonzero;"/>
        <path d="M192,296C190.024,295.999 188.116,295.267 186.648,293.944L26.648,149.944C24.893,148.425 23.883,146.215 23.883,143.894C23.883,139.506 27.494,135.894 31.883,135.894C33.913,135.894 35.87,136.668 37.352,138.056L197.352,282.056C199.035,283.572 199.998,285.734 199.998,288C199.998,292.388 196.388,295.999 192,296Z" style="fill:rgb(0,162,224);fill-rule:nonzero;"/>
        <path d="M320,296C315.612,295.999 312.002,292.388 312.002,288C312.002,285.734 312.965,283.572 314.648,282.056L474.648,138.056C476.13,136.668 478.087,135.894 480.117,135.894C484.506,135.894 488.117,139.506 488.117,143.894C488.117,146.215 487.107,148.425 485.352,149.944L325.352,293.944C323.884,295.267 321.976,295.999 320,296Z" style="fill:rgb(0,162,224);fill-rule:nonzero;"/>
        <g>
            <path d="M276.8,77.6L256,89.6C254.795,90.285 253.432,90.645 252.046,90.645C247.657,90.645 244.046,87.034 244.046,82.645C244.046,79.81 245.554,77.178 248,75.744L268.8,63.744L276.8,77.6Z" style="fill:rgb(229,151,48);fill-rule:nonzero;"/>
            <path d="M260.8,49.856L240,61.856C238.773,62.575 237.376,62.955 235.954,62.955C231.565,62.955 227.954,59.343 227.954,54.955C227.954,52.081 229.502,49.42 232,48L252.8,36L260.8,49.856Z" style="fill:rgb(229,151,48);fill-rule:nonzero;"/>
        </g>
        <circle cx="224" cy="248" r="8" style="fill:rgb(229,151,48);"/>
        <g>
            <circle cx="304" cy="128" r="8" style="fill:rgb(196,242,54);"/>
            <circle cx="280" cy="280" r="8" style="fill:rgb(196,242,54);"/>
            <circle cx="152" cy="200" r="8" style="fill:rgb(196,242,54);"/>
            <circle cx="168" cy="40" r="8" style="fill:rgb(196,242,54);"/>
        </g>
    </g>
</svg>
